<svg width="158" height="26" viewBox="0 0 158 26" fill="none" xmlns="http://www.w3.org/2000/svg">
<path d="M0.653333 5.08H4.17333C4.70667 5.08 5.02667 5.36 5.13333 5.92L8.57333 20.96H8.85333L12.2133 5.92C12.32 5.36 12.6533 5.08 13.2133 5.08H16.7333C17.2933 5.08 17.4933 5.36 17.3333 5.92L12.2933 24.6C12.1867 25.1867 11.8267 25.48 11.2133 25.48H6.13333C5.57333 25.48 5.21333 25.1867 5.05333 24.6L0.0533334 5.92C-0.106667 5.36 0.0933332 5.08 0.653333 5.08Z" fill="#0E1647"/>
<path d="M35.2843 25.48H26.4443C24.3376 25.48 22.7109 24.92 21.5643 23.8C20.4176 22.68 19.8443 21.0667 19.8443 18.96V11.6C19.8443 9.49333 20.4176 7.88 21.5643 6.76C22.7109 5.64 24.3376 5.08 26.4443 5.08H29.6043C31.7109 5.08 33.3376 5.64 34.4843 6.76C35.6309 7.88 36.2043 9.49333 36.2043 11.6V16.68C36.2043 17.24 35.9243 17.52 35.3643 17.52H25.3243C25.0043 17.52 24.8443 17.6667 24.8443 17.96V18.84C24.8443 19.6667 25.0176 20.2667 25.3643 20.64C25.7376 20.9867 26.3509 21.16 27.2043 21.16H35.2843C35.8443 21.16 36.1243 21.4533 36.1243 22.04V24.68C36.1243 24.9733 36.0576 25.1867 35.9243 25.32C35.8176 25.4267 35.6043 25.48 35.2843 25.48ZM25.3243 14.12H30.7643C31.0576 14.12 31.2043 13.9733 31.2043 13.68V11.76C31.2043 10.9067 31.0309 10.3067 30.6843 9.96C30.3376 9.61333 29.7376 9.44 28.8843 9.44H27.2043C26.3509 9.44 25.7509 9.61333 25.4043 9.96C25.0576 10.3067 24.8843 10.9067 24.8843 11.76V13.68C24.8843 13.9733 25.0309 14.12 25.3243 14.12Z" fill="#0E1647"/>
<path d="M44.2499 25.48H40.8499C40.2899 25.48 40.0099 25.2 40.0099 24.64V5.92C40.0099 5.36 40.2899 5.08 40.8499 5.08H44.2499C44.8099 5.08 45.0899 5.36 45.0899 5.92V7.24H45.2499C45.8366 5.8 47.1432 5.08 49.1699 5.08H50.4499C54.6366 5.08 56.7299 7.25333 56.7299 11.6V24.64C56.7299 25.2 56.4366 25.48 55.8499 25.48H52.4899C51.9299 25.48 51.6499 25.2 51.6499 24.64V11.84C51.6499 10.9867 51.4632 10.3867 51.0899 10.04C50.7432 9.66667 50.1432 9.48 49.2899 9.48H47.8499C46.0099 9.48 45.0899 10.4933 45.0899 12.52V24.64C45.0899 25.2 44.8099 25.48 44.2499 25.48Z" fill="#0E1647"/>
<path d="M61.3874 9.48H59.7874C59.4674 9.48 59.2407 9.42667 59.1074 9.32C59.0007 9.21334 58.9474 9 58.9474 8.68V5.92C58.9474 5.36 59.2274 5.08 59.7874 5.08H61.3874C61.6807 5.08 61.8274 4.93333 61.8274 4.64V0.839999C61.8274 0.28 62.1207 0 62.7074 0H66.0674C66.6274 0 66.9074 0.28 66.9074 0.839999V4.64C66.9074 4.93333 67.0674 5.08 67.3874 5.08H70.5074C71.0674 5.08 71.3474 5.36 71.3474 5.92V8.68C71.3474 8.97333 71.2807 9.18667 71.1474 9.32C71.0407 9.42667 70.8274 9.48 70.5074 9.48H67.3874C67.0674 9.48 66.9074 9.62667 66.9074 9.92V18.76C66.9074 19.5867 67.0941 20.1867 67.4674 20.56C67.8407 20.9067 68.4541 21.08 69.3074 21.08H70.9074C71.4674 21.08 71.7474 21.36 71.7474 21.92V24.68C71.7474 24.9733 71.6807 25.1867 71.5474 25.32C71.4407 25.4267 71.2274 25.48 70.9074 25.48H68.4674C66.3607 25.48 64.7207 24.92 63.5474 23.8C62.4007 22.68 61.8274 21.08 61.8274 19V9.92C61.8274 9.62667 61.6807 9.48 61.3874 9.48Z" fill="#0E1647"/>
<path d="M82.409 25.48H81.089C79.0356 25.48 77.4756 24.92 76.409 23.8C75.369 22.68 74.849 21.0667 74.849 18.96V5.92C74.849 5.36 75.129 5.08 75.689 5.08H79.089C79.649 5.08 79.929 5.36 79.929 5.92V18.72C79.929 19.5733 80.1023 20.1867 80.449 20.56C80.8223 20.9067 81.4223 21.08 82.249 21.08H83.729C85.569 21.08 86.489 20.0667 86.489 18.04V5.92C86.489 5.36 86.769 5.08 87.329 5.08H90.689C91.2756 5.08 91.569 5.36 91.569 5.92V24.64C91.569 25.2 91.2756 25.48 90.689 25.48H87.329C86.769 25.48 86.489 25.2 86.489 24.64V23.32H86.329C86.0356 24.04 85.5156 24.5867 84.769 24.96C84.0223 25.3067 83.2356 25.48 82.409 25.48Z" fill="#0E1647"/>
<path d="M100.226 25.48H96.8265C96.2665 25.48 95.9865 25.2 95.9865 24.64V5.92C95.9865 5.36 96.2665 5.08 96.8265 5.08H100.226C100.786 5.08 101.066 5.36 101.066 5.92V7.28H101.226C101.52 6.56 102.04 6.01333 102.786 5.64C103.533 5.26667 104.32 5.08 105.146 5.08H106.586C107.12 5.08 107.386 5.36 107.386 5.92V8.68C107.386 9 107.32 9.22667 107.186 9.36C107.08 9.46667 106.88 9.50667 106.586 9.48H103.826C101.986 9.48 101.066 10.52 101.066 12.6V24.64C101.066 25.2 100.786 25.48 100.226 25.48Z" fill="#0E1647"/>
<path d="M124.972 25.48H116.132C114.025 25.48 112.398 24.92 111.252 23.8C110.105 22.68 109.532 21.0667 109.532 18.96V11.6C109.532 9.49333 110.105 7.88 111.252 6.76C112.398 5.64 114.025 5.08 116.132 5.08H119.292C121.398 5.08 123.025 5.64 124.172 6.76C125.318 7.88 125.892 9.49333 125.892 11.6V16.68C125.892 17.24 125.612 17.52 125.052 17.52H115.012C114.692 17.52 114.532 17.6667 114.532 17.96V18.84C114.532 19.6667 114.705 20.2667 115.052 20.64C115.425 20.9867 116.038 21.16 116.892 21.16H124.972C125.532 21.16 125.812 21.4533 125.812 22.04V24.68C125.812 24.9733 125.745 25.1867 125.612 25.32C125.505 25.4267 125.292 25.48 124.972 25.48ZM115.012 14.12H120.452C120.745 14.12 120.892 13.9733 120.892 13.68V11.76C120.892 10.9067 120.718 10.3067 120.372 9.96C120.025 9.61333 119.425 9.44 118.572 9.44H116.892C116.038 9.44 115.438 9.61333 115.092 9.96C114.745 10.3067 114.572 10.9067 114.572 11.76V13.68C114.572 13.9733 114.718 14.12 115.012 14.12Z" fill="#0E1647"/>
<g clip-path="url(#clip0)">
<path d="M138.994 11.501L133.84 19.1128C133.689 19.3569 133.845 19.6743 134.129 19.7056L144.298 20.7832L138.994 11.501ZM134.143 16.4019L137.819 10.4277L134.077 8.18262C133.947 8.10449 133.781 8.19824 133.781 8.3501V16.2998C133.781 16.4966 134.04 16.5698 134.143 16.4019ZM134.672 21.6836L144.165 25.9639C144.423 26.0835 144.719 25.894 144.719 25.6094V22.4028L134.78 21.314C134.563 21.2896 134.476 21.5869 134.672 21.6836ZM138.638 9.09668L142.541 2.11719C142.753 1.77246 142.366 1.37256 142.015 1.57324L134.651 6.38818C134.53 6.46729 134.534 6.64502 134.657 6.71924L138.638 9.09668ZM145.5 9.59375H150.833L146.166 1.37207C146.013 1.12402 145.756 1 145.5 1C145.244 1 144.987 1.12402 144.834 1.37207L140.167 9.59375H145.5ZM156.923 8.18262L153.181 10.4282L156.857 16.4023C156.96 16.5703 157.219 16.4971 157.219 16.2998V8.3501C157.219 8.19824 157.053 8.10449 156.923 8.18262ZM152.362 9.09668L156.343 6.71875C156.466 6.64453 156.47 6.4668 156.349 6.3877L148.985 1.57324C148.634 1.37256 148.247 1.77246 148.459 2.11719L152.362 9.09668ZM156.22 21.314L146.281 22.4023V25.6089C146.281 25.894 146.577 26.083 146.835 25.9634L156.328 21.6831C156.524 21.5869 156.438 21.2896 156.22 21.314ZM152.006 11.501L146.702 20.7832L156.871 19.7056C157.156 19.6738 157.311 19.3569 157.161 19.1128L152.006 11.501ZM145.5 11.1562H140.596L145.5 19.7378L150.404 11.1562H145.5Z" fill="#E51C44"/>
</g>
<defs>
<clipPath id="clip0">
<rect width="25" height="25" fill="white" transform="translate(133 1)"/>
</clipPath>
</defs>
</svg>
